<svg xmlns="http://www.w3.org/2000/svg" viewBox="506.392 200.057 358.645 300.15"><path d="M515.529 364.942h25.864v-91.907h36.596v91.907h26.14v-91.907h36.596v91.907h25.864V250.057h-151.06zm169.911 0h25.864V250.057H685.44zm45.814 0h78.695v-75.476l-15.134-39.409h-63.561zm25.864-22.977v-68.929h20.362l6.604 16.431v52.499zm72.918 22.977H855.9V250.057h-25.864zm-299.73 19.446v23.905h-23.914v-23.905zm0 23.905h23.907v23.914h-23.907zm47.814-23.905v23.905h-23.907v-23.905zm0 23.905h23.914v23.914H578.12zm47.82-23.905v23.905h-23.911v-23.905zm0 23.905h23.909v23.914H625.94zm47.816-23.905v23.905h-23.907v-23.905zm0 23.905h23.914v23.914h-23.914zm47.822-23.905v23.905h-23.909v-23.905zm0 23.905h23.914v23.914h-23.914zm47.818-23.905v23.905h-23.905v-23.905zm0 23.905h23.914v23.914h-23.914zm47.818-23.905v23.905h-23.905v-23.905zm47.823 0v23.905h-23.909v-23.905zm-47.823 23.905h23.909v23.914h-23.909z"/></svg>